<svg xmlns="http://www.w3.org/2000/svg" width="30" height="30" viewBox="-18 13.7 23.8 24.5"><path d="M-6.4 36.4c-5.8 0-10.6-4.7-10.6-10.6s4.8-10.5 10.6-10.5S4.2 20 4.2 25.8-.6 36.4-6.4 36.4zm.3-17.6c-2.2 0-3.9 1-5.1 2.9-.1.2-.1.5.1.6l1.8 1.4c.1.1.2.1.3.1s.3-.1.3-.2c.6-.8.9-1.1 1.2-1.3.2-.1.7-.3 1.2-.3.9 0 1.7.6 1.7 1.2 0 .7-.4 1.1-1.2 1.5-1 .4-2.3 1.6-2.3 2.9v.4c0 .2.2.4.4.4h2.6c.2 0 .4-.2.4-.4 0-.3.4-1 1-1.4 1-.6 2.5-1.4 2.5-3.5.1-2.4-2.6-4.3-4.9-4.3zm1.5 11c0-.2-.2-.4-.4-.4h-2.6c-.2 0-.4.2-.4.4v2.6c0 .2.2.4.4.4H-5c.2 0 .4-.2.4-.4v-2.6z"/></svg>
